<svg xmlns="http://www.w3.org/2000/svg" width="1280" height="800" viewBox="0 0 1280 800">
  <rect width="1280" height="800" fill="#111827"/>
  <rect x="40" y="40" width="1200" height="720" rx="24" fill="#1f2937"/>
  <rect x="40" y="40" width="1200" height="56" rx="24" fill="#374151"/>
  <circle cx="82" cy="68" r="8" fill="#ef4444"/>
  <circle cx="106" cy="68" r="8" fill="#f59e0b"/>
  <circle cx="130" cy="68" r="8" fill="#22c55e"/>
  <rect x="72" y="128" width="280" height="584" rx="18" fill="#111827"/>
  <rect x="384" y="128" width="816" height="120" rx="18" fill="#2563eb"/>
  <rect x="384" y="272" width="816" height="180" rx="18" fill="#0f172a"/>
  <rect x="384" y="476" width="816" height="104" rx="18" fill="#0f172a"/>
  <rect x="384" y="604" width="816" height="108" rx="18" fill="#0f172a"/>
  <text x="96" y="175" fill="#e5e7eb" font-size="34" font-family="Helvetica, Arial, sans-serif">Disks</text>
  <text x="96" y="228" fill="#9ca3af" font-size="24" font-family="Helvetica, Arial, sans-serif">Backup / NTFS / Read Only</text>
  <text x="420" y="180" fill="#ffffff" font-size="40" font-family="Helvetica, Arial, sans-serif">MountGuard Main Window</text>
  <text x="420" y="220" fill="#dbeafe" font-size="24" font-family="Helvetica, Arial, sans-serif">Overview, process scan, self-test, logs</text>
  <text x="420" y="328" fill="#e5e7eb" font-size="30" font-family="Helvetica, Arial, sans-serif">Open Processes</text>
  <text x="420" y="382" fill="#9ca3af" font-size="22" font-family="Helvetica, Arial, sans-serif">See who is blocking eject before you unplug.</text>
  <text x="420" y="532" fill="#e5e7eb" font-size="30" font-family="Helvetica, Arial, sans-serif">Disk Self-Test</text>
  <text x="420" y="572" fill="#9ca3af" font-size="22" font-family="Helvetica, Arial, sans-serif">Only touches .mountguard-selftest and cleans up.</text>
  <text x="420" y="658" fill="#e5e7eb" font-size="30" font-family="Helvetica, Arial, sans-serif">Recent Logs</text>
  <text x="420" y="698" fill="#9ca3af" font-size="22" font-family="Helvetica, Arial, sans-serif">Designed to feel calm, readable, and safe.</text>
</svg>
